<svg width="21" height="22" viewBox="0 0 21 22" fill="none" xmlns="http://www.w3.org/2000/svg">
<path d="M16.2722 7C16.2722 5.4087 15.6528 3.88258 14.5503 2.75736C13.4477 1.63214 11.9524 1 10.3932 1C8.83399 1 7.33864 1.63214 6.23612 2.75736C5.13359 3.88258 4.5142 5.4087 4.5142 7C4.5142 14 1.57471 16 1.57471 16H19.2117C19.2117 16 16.2722 14 16.2722 7Z" stroke="#263262" stroke-width="2" stroke-linecap="round" stroke-linejoin="round"/>
<path d="M12.0884 20C11.9161 20.3031 11.6688 20.5547 11.3713 20.7295C11.0739 20.9044 10.7366 20.9965 10.3933 20.9965C10.0499 20.9965 9.71265 20.9044 9.41516 20.7295C9.11766 20.5547 8.87041 20.3031 8.69814 20" stroke="#263262" stroke-width="2" stroke-linecap="round" stroke-linejoin="round"/>
</svg>
