<svg width="25" height="25" viewBox="0 0 25 25" fill="none" xmlns="http://www.w3.org/2000/svg">
<path d="M22.1436 12.1078L8.61816 12.1078C8.3903 12.1078 8.20312 12.1829 8.05664 12.333C7.91016 12.4831 7.83691 12.6648 7.83691 12.8781C7.83691 13.0913 7.91016 13.2691 8.05664 13.4113C8.20312 13.5535 8.3903 13.6246 8.61816 13.6246L22.0947 13.6246L19.2627 16.3736C19.1162 16.5158 19.043 16.6936 19.043 16.9069C19.043 17.1201 19.1162 17.2979 19.2627 17.4401C19.3766 17.5349 19.4987 17.602 19.6289 17.6415C19.7591 17.681 19.8934 17.681 20.0317 17.6415C20.1701 17.602 20.2881 17.5349 20.3857 17.4401L25 12.8425L20.3857 8.24494C20.3044 8.18175 20.2148 8.1304 20.1172 8.0909C20.0195 8.0514 19.9219 8.03165 19.8242 8.03165C19.6126 8.03165 19.4255 8.10275 19.2627 8.24494C19.2139 8.29234 19.1732 8.34764 19.1406 8.41084C19.1081 8.47403 19.0837 8.53723 19.0674 8.60043C19.0511 8.66362 19.043 8.72682 19.043 8.79002C19.043 8.85321 19.0511 8.91641 19.0674 8.97961C19.0837 9.0428 19.1081 9.106 19.1406 9.1692C19.1732 9.23239 19.2139 9.28769 19.2627 9.33509L22.1436 12.1078ZM1.5625 25L14.8438 25C15.2832 25 15.6535 24.8539 15.9546 24.5616C16.2557 24.2693 16.4062 23.9099 16.4062 23.4833V16.658H14.8437L14.8438 22.559C14.8438 22.717 14.8031 22.8671 14.7217 23.0093C14.6403 23.1515 14.5264 23.266 14.3799 23.3529C14.2334 23.4398 14.0706 23.4833 13.8916 23.4833L2.53906 23.4833C2.27865 23.4833 2.05892 23.3924 1.87988 23.2107C1.70085 23.029 1.61133 22.8118 1.61133 22.559L1.58691 3.1734C1.58691 2.92061 1.67643 2.70337 1.85547 2.52168C2.03451 2.33999 2.25423 2.24915 2.51465 2.24915L13.8916 2.24915C14.152 2.24915 14.3758 2.33999 14.563 2.52168C14.7502 2.70337 14.8437 2.92061 14.8437 3.1734L14.8437 9.0981H16.4062L16.4062 2.24915C16.4062 1.82257 16.2557 1.46313 15.9546 1.17085C15.6535 0.878565 15.2832 0.732422 14.8437 0.732422L1.5625 0.732422C1.46484 0.732422 1.36312 0.74427 1.25732 0.767971C1.15153 0.791668 1.05387 0.819317 0.964355 0.850916C0.874838 0.882515 0.785318 0.925962 0.695801 0.981258C0.606283 1.03656 0.528971 1.09975 0.463867 1.17085C0.398764 1.24195 0.337729 1.31699 0.280762 1.39599C0.223795 1.47499 0.174967 1.56188 0.134277 1.65668C0.0935879 1.75147 0.0610352 1.84627 0.0366211 1.94106C0.012207 2.03586 0 2.13855 0 2.24915L0 23.4833C0 24.0994 0.28483 24.5497 0.854492 24.8341C1.08236 24.9447 1.31836 25 1.5625 25Z" fill="white"/>
</svg>
