<svg width="25" height="24" viewBox="0 0 25 24" fill="none" xmlns="http://www.w3.org/2000/svg">
<path d="M24.192 8.16033L16.6975 7.10304L13.3472 0.510031C13.2557 0.329518 13.1052 0.183389 12.9192 0.0945649C12.4528 -0.128927 11.8861 0.0573163 11.6529 0.510031L8.30266 7.10304L0.808145 8.16033C0.601522 8.18898 0.41261 8.28354 0.267974 8.4268C0.0931164 8.60126 -0.00323781 8.83597 8.308e-05 9.07935C0.00340397 9.32273 0.106128 9.55488 0.285684 9.72478L5.70806 14.8565L4.427 22.1028C4.39696 22.2714 4.41618 22.4447 4.48247 22.6032C4.54877 22.7617 4.65949 22.899 4.80208 22.9996C4.94467 23.1001 5.11342 23.1598 5.28921 23.172C5.46499 23.1842 5.64077 23.1483 5.79662 23.0684L12.5001 19.6472L19.2035 23.0684C19.3865 23.1629 19.599 23.1945 19.8027 23.1601C20.3163 23.0741 20.6617 22.6013 20.5731 22.1028L19.2921 14.8565L24.7144 9.72478C24.862 9.58438 24.9594 9.401 24.9889 9.20043C25.0686 8.699 24.7085 8.23483 24.192 8.16033ZM17.0103 14.1344L18.0759 20.1601L12.5001 17.3178L6.92419 20.163L7.98977 14.1373L3.47949 9.86804L9.7136 8.9884L12.5001 3.50711L15.2865 8.9884L21.5206 9.86804L17.0103 14.1344Z" fill="white"/>
</svg>
