<svg width="28" height="21" viewBox="0 0 28 21" fill="none" xmlns="http://www.w3.org/2000/svg">
<path d="M5.50427 20.0013C5.01797 20.0021 4.53372 19.9382 4.06427 19.8113C2.65518 19.4094 1.45971 18.4713 0.734338 17.1982C0.00897044 15.925 -0.188507 14.4183 0.184273 13.0013L2.51427 4.16126C2.69573 3.44583 3.01832 2.77388 3.46309 2.18486C3.90786 1.59584 4.46584 1.10163 5.10427 0.731261C5.7259 0.371211 6.41279 0.138087 7.12516 0.0453932C7.83753 -0.0473002 8.5612 0.00227973 9.25427 0.191261C9.99102 0.395849 10.6772 0.751267 11.2694 1.23498C11.8616 1.7187 12.3468 2.32017 12.6943 3.00126H15.2943C15.6403 2.31908 16.125 1.71673 16.7174 1.23283C17.3098 0.748926 17.9968 0.394155 18.7343 0.191261C19.4273 0.00227973 20.151 -0.0473002 20.8634 0.0453932C21.5758 0.138087 22.2626 0.371211 22.8843 0.731261C23.5196 1.10068 24.0755 1.59218 24.5201 2.17743C24.9646 2.76268 25.2889 3.43011 25.4743 4.14126L27.8043 13.0013C28.1826 14.4225 27.9867 15.9354 27.2589 17.2134C26.531 18.4913 25.3296 19.4317 23.9143 19.8313C23.2212 20.0202 22.4975 20.0698 21.7852 19.9771C21.0728 19.8844 20.3859 19.6513 19.7643 19.2913C19.1279 18.9232 18.5712 18.4321 18.1265 17.8466C17.6818 17.2612 17.3581 16.5931 17.1743 15.8813L16.9943 15.0013H10.9943L10.7643 15.8613C10.5804 16.5731 10.2567 17.2412 9.81205 17.8266C9.36739 18.4121 8.81065 18.9032 8.17427 19.2713C7.36175 19.7399 6.4422 19.9913 5.50427 20.0013ZM7.82427 2.00126C7.22081 2.00331 6.62819 2.1618 6.10427 2.46126C5.28313 2.94304 4.68626 3.73048 4.44427 4.65126L2.11427 13.4913C1.87046 14.402 1.99366 15.372 2.45739 16.1929C2.92112 17.0138 3.68838 17.62 4.59427 17.8813C5.03178 18.0006 5.4886 18.032 5.93832 17.9736C6.38804 17.9153 6.82172 17.7683 7.21427 17.5413C7.62298 17.3053 7.98037 16.99 8.26545 16.6139C8.55053 16.2378 8.75752 15.8085 8.87427 15.3513L9.49427 13.0013H18.4943L19.1043 15.3513C19.2231 15.8076 19.4309 16.2361 19.7158 16.6119C20.0006 16.9877 20.357 17.3036 20.7643 17.5413C21.1588 17.7681 21.5941 17.9149 22.0454 17.9732C22.4967 18.0316 22.9551 18.0003 23.3943 17.8813C24.3013 17.6224 25.0695 17.0162 25.532 16.1942C25.9945 15.3721 26.1139 14.4008 25.8643 13.4913L23.5343 4.65126C23.4182 4.19506 23.2125 3.7665 22.9292 3.39053C22.646 3.01455 22.2908 2.69867 21.8843 2.46126C21.4898 2.23443 21.0544 2.08764 20.6031 2.02929C20.1518 1.97095 19.6935 2.0022 19.2543 2.12126C18.7111 2.27609 18.2127 2.55828 17.8006 2.94438C17.3884 3.33049 17.0742 3.80938 16.8843 4.34126L16.6443 5.00126H11.3443L11.1043 4.34126C10.9126 3.80867 10.5967 3.32945 10.1828 2.94336C9.76891 2.55727 9.2689 2.27544 8.72427 2.12126C8.4308 2.04213 8.12823 2.00179 7.82427 2.00126Z" fill="white"/>
<path d="M7.99414 10.0012C7.59858 10.0012 7.2119 9.88392 6.883 9.66416C6.5541 9.4444 6.29776 9.13204 6.14638 8.76659C5.99501 8.40114 5.9554 7.999 6.03257 7.61104C6.10974 7.22308 6.30022 6.86671 6.57993 6.58701C6.85963 6.3073 7.216 6.11682 7.60396 6.03965C7.99192 5.96248 8.39406 6.00209 8.75951 6.15346C9.12496 6.30484 9.43732 6.56118 9.65708 6.89008C9.87684 7.21898 9.99414 7.60566 9.99414 8.00122C9.99414 8.53165 9.78343 9.04036 9.40835 9.41544C9.03328 9.79051 8.52457 10.0012 7.99414 10.0012Z" fill="white"/>
<path d="M19.9941 7.00122C20.5464 7.00122 20.9941 6.55351 20.9941 6.00122C20.9941 5.44894 20.5464 5.00122 19.9941 5.00122C19.4419 5.00122 18.9941 5.44894 18.9941 6.00122C18.9941 6.55351 19.4419 7.00122 19.9941 7.00122Z" fill="white"/>
<path d="M19.9941 11.0012C20.5464 11.0012 20.9941 10.5535 20.9941 10.0012C20.9941 9.44894 20.5464 9.00122 19.9941 9.00122C19.4419 9.00122 18.9941 9.44894 18.9941 10.0012C18.9941 10.5535 19.4419 11.0012 19.9941 11.0012Z" fill="white"/>
<path d="M17.9941 9.00122C18.5464 9.00122 18.9941 8.55351 18.9941 8.00122C18.9941 7.44894 18.5464 7.00122 17.9941 7.00122C17.4419 7.00122 16.9941 7.44894 16.9941 8.00122C16.9941 8.55351 17.4419 9.00122 17.9941 9.00122Z" fill="white"/>
<path d="M21.9941 9.00122C22.5464 9.00122 22.9941 8.55351 22.9941 8.00122C22.9941 7.44894 22.5464 7.00122 21.9941 7.00122C21.4419 7.00122 20.9941 7.44894 20.9941 8.00122C20.9941 8.55351 21.4419 9.00122 21.9941 9.00122Z" fill="white"/>
</svg>
