<svg width="25" height="23" viewBox="0 0 25 23" fill="none" xmlns="http://www.w3.org/2000/svg">
<path d="M24.4816 11.2646L13.8264 0.937326L13.1122 0.244744C12.9495 0.0879814 12.7294 0 12.5 0C12.2707 0 12.0506 0.0879814 11.8879 0.244744L0.518532 11.2646C0.351787 11.4256 0.220005 11.6174 0.130966 11.8287C0.0419262 12.04 -0.00256625 12.2664 0.000114299 12.4946C0.0111445 13.4359 0.819104 14.1873 1.78976 14.1873H2.96171V22.8967H22.0384V14.1873H23.2352C23.7067 14.1873 24.1507 14.0081 24.4843 13.6846C24.6486 13.5258 24.7788 13.3369 24.8673 13.129C24.9558 12.9211 25.0009 12.6982 25 12.4732C25 12.0186 24.8152 11.5881 24.4816 11.2646ZM14.0443 20.9714H10.9558V15.5163H14.0443V20.9714ZM20.053 12.262V20.9714H15.8091V14.8745C15.8091 14.2836 15.3155 13.8049 14.7061 13.8049H10.294C9.6846 13.8049 9.191 14.2836 9.191 14.8745V20.9714H4.94714V12.262H2.2999L12.5028 2.37597L13.1398 2.99368L22.703 12.262H20.053Z" fill="white"/>
</svg>
