<svg width="25" height="24" viewBox="0 0 25 24" fill="none" xmlns="http://www.w3.org/2000/svg">
<path d="M14.2006 9.15248C13.5561 9.15248 13.0567 9.65189 13.0567 10.2685C13.0567 10.8851 13.5561 11.3845 14.2006 11.3845C14.7893 11.3845 15.2887 10.8851 15.2887 10.2685C15.2887 9.65189 14.7893 9.15248 14.2006 9.15248ZM6.38856 9.15248C5.74407 9.15248 5.24466 9.65189 5.24466 10.2685C5.24466 10.8851 5.74407 11.3845 6.38856 11.3845C6.97725 11.3845 7.47667 10.8851 7.47667 10.2685C7.47667 9.65189 6.97725 9.15248 6.38856 9.15248Z" fill="white"/>
<path d="M23.1567 7.03207C21.8147 5.19067 19.9398 3.96027 17.8836 3.40506V3.40785C17.4065 2.87775 16.868 2.3895 16.2654 1.95425C11.6981 -1.36586 5.28669 -0.353083 1.95263 4.21416C-0.734144 7.92487 -0.619754 12.9162 2.12003 16.4623L2.14235 20.1619C2.14235 20.2511 2.1563 20.3404 2.1842 20.4241C2.33207 20.8956 2.83428 21.1551 3.303 21.0072L6.83515 19.894C7.7698 20.226 8.73514 20.4157 9.6949 20.4688L9.68095 20.4799C12.1669 22.2906 15.4256 22.8347 18.4137 21.847L21.9598 23.0021C22.0491 23.03 22.1411 23.0467 22.236 23.0467C22.7298 23.0467 23.1288 22.6478 23.1288 22.1539V18.4153C25.5868 15.0785 25.651 10.4666 23.1567 7.03207ZM7.22575 17.9131L6.89095 17.7736L4.12884 18.6385L4.10094 15.7369L3.87774 15.4858C1.51739 12.6065 1.36115 8.45777 3.57084 5.41387C6.2604 1.72547 11.4163 0.910791 15.0936 3.57246C18.782 6.25366 19.5994 11.4012 16.935 15.0673C14.7002 18.1335 10.6993 19.2663 7.22575 17.9131ZM21.3153 17.4388L21.0921 17.7178L21.12 20.6194L18.3858 19.6987L18.051 19.8382C16.4886 20.4185 14.8229 20.466 13.2801 20.0335L13.2745 20.0307C15.3363 19.3974 17.2056 18.114 18.5532 16.267C20.6847 13.3291 21.0307 9.63794 19.7919 6.49081L19.8087 6.50197C20.4504 6.96232 21.0391 7.53706 21.5385 8.23178C23.564 11.0106 23.4496 14.7939 21.3153 17.4388Z" fill="white"/>
<path d="M10.2946 9.15248C9.65008 9.15248 9.15067 9.65189 9.15067 10.2685C9.15067 10.8851 9.65008 11.3845 10.2946 11.3845C10.8833 11.3845 11.3827 10.8851 11.3827 10.2685C11.3827 9.65189 10.8833 9.15248 10.2946 9.15248Z" fill="white"/>
</svg>
