<svg width="25" height="25" viewBox="0 0 25 25" fill="none" xmlns="http://www.w3.org/2000/svg">
<path d="M22.9574 12.9997C22.7534 12.7771 22.6409 12.4911 22.6409 12.1949C22.6409 11.8987 22.7534 11.6127 22.9574 11.3901L24.586 9.63432C24.7654 9.44248 24.8769 9.2011 24.9043 8.9448C24.9317 8.6885 24.8737 8.43047 24.7386 8.20771L22.194 3.98885C22.0603 3.76635 21.8567 3.58998 21.6122 3.48489C21.3677 3.37979 21.0949 3.35133 20.8326 3.40357L18.4406 3.86692C18.1362 3.92719 17.8193 3.87861 17.5498 3.73035C17.2802 3.5821 17.0766 3.34442 16.9774 3.06216L16.2013 0.830799C16.1159 0.588615 15.9533 0.378265 15.7364 0.229479C15.5195 0.0806936 15.2593 0.000998378 14.9925 0.00165823H9.90318C9.62573 -0.0122202 9.35116 0.0613153 9.12141 0.211033C8.89167 0.360751 8.71937 0.578422 8.63085 0.830799L7.91833 3.06216C7.81909 3.34442 7.61548 3.5821 7.34593 3.73035C7.07637 3.87861 6.75951 3.92719 6.45515 3.86692L3.99953 3.40357C3.75086 3.3699 3.49734 3.4075 3.27093 3.51165C3.04451 3.6158 2.85532 3.78184 2.7272 3.98885L0.182518 8.20771C0.0440369 8.42798 -0.0182287 8.68457 0.0046231 8.9408C0.0274749 9.19702 0.134274 9.43977 0.309752 9.63432L1.92562 11.3901C2.1296 11.6127 2.2421 11.8987 2.2421 12.1949C2.2421 12.4911 2.1296 12.7771 1.92562 12.9997L0.309752 14.7555C0.134274 14.95 0.0274749 15.1928 0.0046231 15.449C-0.0182287 15.7052 0.0440369 15.9618 0.182518 16.1821L2.7272 20.401C2.86091 20.6235 3.06452 20.7998 3.30897 20.9049C3.55343 21.01 3.82627 21.0385 4.0886 20.9862L6.48059 20.5229C6.78496 20.4626 7.10182 20.5112 7.37137 20.6595C7.64093 20.8077 7.84454 21.0454 7.94378 21.3276L8.71991 23.559C8.80844 23.8114 8.98073 24.0291 9.21048 24.1788C9.44022 24.3285 9.71479 24.402 9.99225 24.3881H15.0816C15.3483 24.3888 15.6085 24.3091 15.8254 24.1603C16.0423 24.0115 16.205 23.8012 16.2903 23.559L17.0664 21.3276C17.1657 21.0454 17.3693 20.8077 17.6389 20.6595C17.9084 20.5112 18.2253 20.4626 18.5296 20.5229L20.9216 20.9862C21.184 21.0385 21.4568 21.01 21.7013 20.9049C21.9457 20.7998 22.1493 20.6235 22.283 20.401L24.8277 16.1821C24.9628 15.9593 25.0208 15.7013 24.9934 15.445C24.9659 15.1887 24.8545 14.9473 24.675 14.7555L22.9574 12.9997ZM21.0616 14.6336L22.0795 15.7309L20.4509 18.4378L18.9495 18.1452C18.0331 17.9657 17.0799 18.1149 16.2707 18.5644C15.4615 19.014 14.8528 19.7326 14.5599 20.5839L14.0765 21.9495H10.8193L10.3612 20.5595C10.0684 19.7082 9.45962 18.9896 8.65044 18.54C7.84127 18.0905 6.88802 17.9413 5.97166 18.1208L4.4703 18.4135L2.81626 15.7187L3.83413 14.6214C4.46006 13.9507 4.80611 13.0825 4.80611 12.1827C4.80611 11.2829 4.46006 10.4147 3.83413 9.74406L2.81626 8.64667L4.44485 5.96415L5.94621 6.25679C6.86258 6.4363 7.81582 6.28713 8.625 5.83759C9.43418 5.38804 10.043 4.66943 10.3358 3.81814L10.8193 2.44031H14.0765L14.5599 3.83034C14.8528 4.68162 15.4615 5.40024 16.2707 5.84978C17.0799 6.29932 18.0331 6.4485 18.9495 6.26899L20.4509 5.97635L22.0795 8.68325L21.0616 9.78064C20.4427 10.4498 20.1009 11.3129 20.1009 12.2071C20.1009 13.1012 20.4427 13.9644 21.0616 14.6336ZM12.4479 7.3176C11.4413 7.3176 10.4573 7.60365 9.62037 8.13958C8.78343 8.6755 8.13111 9.43723 7.74591 10.3284C7.36071 11.2197 7.25992 12.2003 7.4563 13.1464C7.65267 14.0925 8.13738 14.9616 8.84914 15.6437C9.5609 16.3258 10.4677 16.7903 11.455 16.9785C12.4422 17.1667 13.4655 17.0701 14.3955 16.7009C15.3254 16.3318 16.1203 15.7066 16.6795 14.9046C17.2387 14.1025 17.5372 13.1595 17.5372 12.1949C17.5372 10.9014 17.001 9.6608 16.0466 8.74613C15.0921 7.83146 13.7976 7.3176 12.4479 7.3176ZM12.4479 14.6336C11.9446 14.6336 11.4526 14.4905 11.0341 14.2226C10.6156 13.9546 10.2895 13.5737 10.0969 13.1281C9.90428 12.6825 9.85389 12.1922 9.95208 11.7191C10.0503 11.2461 10.2926 10.8116 10.6485 10.4705C11.0044 10.1295 11.4578 9.89721 11.9514 9.80311C12.445 9.70901 12.9567 9.75731 13.4217 9.94188C13.8866 10.1265 14.2841 10.439 14.5637 10.8401C14.8433 11.2411 14.9925 11.7126 14.9925 12.1949C14.9925 12.8417 14.7244 13.462 14.2472 13.9193C13.77 14.3766 13.1228 14.6336 12.4479 14.6336Z" fill="white"/>
</svg>
